<?xml version="1.0" encoding="UTF-8" standalone="no"?>
<!-- Created with Inkscape (http://www.inkscape.org/) -->

<svg
   width="175mm"
   height="176mm"
   viewBox="0 0 175 176"
   version="1.1"
   id="svg4619"
   xml:space="preserve"
   xmlns="http://www.w3.org/2000/svg"
   xmlns:svg="http://www.w3.org/2000/svg"><defs
     id="defs4616"><rect
       x="501.82045"
       y="71.168282"
       width="119.64117"
       height="20.734066"
       id="rect34318" /><rect
       x="345.99973"
       y="134.12349"
       width="200.21333"
       height="91.35948"
       id="rect33324" /><rect
       x="345.99973"
       y="134.12349"
       width="200.21333"
       height="91.35948"
       id="rect34330" /><rect
       x="345.99973"
       y="134.12349"
       width="200.21333"
       height="91.35948"
       id="rect35269" /></defs><g
     id="layer1"><rect
       style="fill:#0000ff;fill-opacity:1;stroke:none;stroke-width:1;stroke-dasharray:none;stroke-opacity:1"
       id="rect13560"
       width="13.141206"
       height="15.907776"
       x="-272.2887"
       y="-139.94838" /><path
       style="fill:#ececff;fill-opacity:1;stroke-width:0.146"
       d="m -343.30333,-184.93039 -2.48387,152.225798 170.32256,-1.7742 -18.45161,-172.451598 z"
       id="path5135" /><path
       style="fill:#ededd6;fill-opacity:1;stroke-width:0.146"
       d="M 15.827029,36.376528 5.8807011,175.16991 174.71077,173.39571 165.21411,1.6903496 Z"
       id="path5135-9" /><path
       id="rect32541"
       style="opacity:0.545082;fill:#ffffff;stroke-width:0.264999;paint-order:stroke markers fill"
       d="m 15.226461,98.515144 12.496022,-1.836835 3.216032,7.318911 -15.483843,-4.976664 z"
       transform="rotate(-36.636779)" /><path
       style="fill:#ffcc00;stroke-width:0.188494"
       d="m -300.22494,-190.44199 c 4.69526,-3.14373 84.04583,-4.89681 83.74192,-0.59145 -1.97286,27.9486 0.70967,112.376118 0.70967,112.376118 l -89.77418,-1.77437 c 0,0 -7.86589,-101.179888 5.32259,-110.010298 z"
       id="path4857" /><path
       style="fill:#4d4d4d;stroke:none;stroke-width:0.146"
       d="m -293.80447,-163.5003 c -1.41936,2.83871 -0.70968,7.09677 -0.70968,7.09677 l 66.35483,3.19355 -0.70968,-9.2258 z"
       id="path4913" /><path
       style="fill:#ffd5d5;stroke-width:0.146"
       d="m -273.0256,-128.75508 -16.5807,42.759988 83.78534,33.53411 12.91252,-43.27838 z"
       id="path5500" /><path
       style="fill:#241c1c;stroke-width:0.146"
       d="m -272.96946,-117.00796 33.07824,31.654178 37.4215,-1.50791 -3.96804,-4.95438 -31.07718,1.30611 -29.01211,-28.608168 z"
       id="path5502" /><path
       style="fill:#004077;fill-opacity:1;stroke:none;stroke-width:1;stroke-dasharray:none;stroke-opacity:1"
       d="m -247.80034,-176.17821 -13.26243,-0.39393 -2.75753,-3.67671 z"
       id="path15184" /><path
       style="fill:#004077;fill-opacity:1;stroke:none;stroke-width:1;stroke-dasharray:none;stroke-opacity:1"
       d="m -244.78019,-176.17821 -30.33287,-7.22211 h 18.12094 l 1.05049,1.44442 z"
       id="path15240" /><path
       style="fill:#004077;fill-opacity:1;stroke:none;stroke-width:1;stroke-dasharray:none;stroke-opacity:1"
       d="m -250.29525,-187.33965 -17.72701,0.26262 0.91919,2.75753 10.7675,0.26262 z"
       id="path15242" /><path
       id="path34322"
       style="opacity:1;fill:#ddf7d9;stroke-width:0.264999;paint-order:stroke markers fill;fill-opacity:1"
       d="m 77.355641,86.862295 10.853664,6.4593 5.761979,-5.541562 -16.212083,-1.298082 z" /><path
       id="rect21292"
       style="stroke-width:0.264583"
       d="m 32.717918,75.338571 c -0.407166,-7.153472 37.575866,-19.400963 42.536008,-5.969966 3.94337,10.677807 8.20871,74.624585 8.20871,74.624585 l -45.520998,4.47747 c 0,0 -3.828927,-48.627039 -5.22372,-73.132089 z" /><rect
       style="opacity:0.545082;fill:#ffffff;fill-opacity:1;stroke:none;stroke-width:0.337386;stroke-dasharray:none;stroke-opacity:1;paint-order:stroke markers fill"
       id="rect21295"
       width="74.845985"
       height="40.152393"
       x="78.574799"
       y="24.336416"
       ry="11.685419" /><text
       xml:space="preserve"
       transform="matrix(2.2948692,0,0,2.2948692,-708.7334,-313.64271)"
       id="text33322"
       style="white-space:pre;shape-inside:url(#rect33324);opacity:0.97541;fill:#000000;fill-opacity:1;stroke:none;stroke-width:1.00157;stroke-dasharray:none;stroke-opacity:1;paint-order:stroke markers fill"><tspan
         x="346"
         y="145.04155"
         id="tspan36503">
</tspan><tspan
         x="346"
         y="160.04155"
         id="tspan36505">😻</tspan></text><text
       xml:space="preserve"
       transform="scale(0.26458333)"
       id="text34316"
       style="fill:#ffffff;stroke-width:1.0015748;fill-opacity:1;stroke:none;stroke-opacity:1;stroke-dasharray:none;paint-order:stroke markers fill;opacity:0.97540984;white-space:pre;shape-inside:url(#rect34318)" /><rect
       style="opacity:0.5;fill:#ceffdc;fill-opacity:1;stroke:none;stroke-width:0.337386;stroke-dasharray:none;stroke-opacity:1;paint-order:stroke markers fill"
       id="rect34324"
       width="74.845985"
       height="40.152393"
       x="89.546577"
       y="-126.79283"
       ry="11.685419"
       transform="scale(1,-1)" /><text
       xml:space="preserve"
       transform="matrix(2.2948692,0,0,2.2948692,-701.60401,-251.02025)"
       id="text35267"
       style="white-space:pre;shape-inside:url(#rect35269);opacity:0.97541;fill:#000000;fill-opacity:1;stroke:none;stroke-width:1.00157;stroke-dasharray:none;stroke-opacity:1;paint-order:stroke markers fill"><tspan
         x="346"
         y="145.04155"
         id="tspan36507">
</tspan><tspan
         x="346"
         y="160.04155"
         id="tspan36509">😍</tspan></text></g></svg>
